name C:/MyDriveSym/Projects/mobilecap/Data\Session20210830_0002\mocap\ForceDataProcessed\walking2_forces.mot
datacolumns 19
datarows 27
range 0.97450000 0.98750000
endheader 
time	R_ground_force_vx	R_ground_force_vy	R_ground_force_vz	R_ground_force_px	R_ground_force_py	R_ground_force_pz	R_ground_torque_x	R_ground_torque_y	R_ground_torque_z	L_ground_force_vx	L_ground_force_vy	L_ground_force_vz	L_ground_force_px	L_ground_force_py	L_ground_force_pz	L_ground_torque_x	L_ground_torque_y	L_ground_torque_z	
          0.97450000	          0.00000000	          0.00000000	          0.00000000	          1.18165400	          0.00000000	         -0.17991700	          0.00000000	          0.00000000	          0.00000000	         -0.25218100	        727.02231200	         22.90849400	          0.96655800	          0.00600000	         -0.25854900	          0.00000000	          7.11277200	          0.00000000	
          0.97500000	          0.00000000	          0.00000000	          0.00000000	          1.18323900	          0.00000000	         -0.18000700	          0.00000000	          0.00000000	          0.00000000	         -0.04509400	        728.09223800	         23.01814400	          0.96681400	          0.00600000	         -0.25857300	          0.00000000	          7.11179500	          0.00000000	
          0.97550000	          0.00000000	          0.00000000	          0.00000000	          1.18482400	          0.00000000	         -0.18009600	          0.00000000	          0.00000000	          0.00000000	          0.16351100	        729.16141900	         23.12772000	          0.96707100	          0.00600000	         -0.25859800	          0.00000000	          7.11058300	          0.00000000	
          0.97600000	          0.00000000	          0.00000000	          0.00000000	          1.18640800	          0.00000000	         -0.18018500	          0.00000000	          0.00000000	          0.00000000	          0.37364300	        730.22976800	         23.23720400	          0.96732700	          0.00600000	         -0.25862200	          0.00000000	          7.10913500	          0.00000000	
          0.97650000	          0.00000000	          0.00000000	          0.00000000	          1.18799300	          0.00000000	         -0.18027500	          0.00000000	          0.00000000	          0.00000000	          0.58530800	        731.29719900	         23.34657900	          0.96758400	          0.00600000	         -0.25864600	          0.00000000	          7.10745200	          0.00000000	
          0.97700000	          0.00000000	          0.00000000	          0.00000000	          1.18957800	          0.00000000	         -0.18036400	          0.00000000	          0.00000000	          0.00000000	          0.79851500	        732.36362400	         23.45582400	          0.96784000	          0.00600000	         -0.25867100	          0.00000000	          7.10553300	          0.00000000	
          0.97750000	          0.00000000	          0.00000000	          0.00000000	          1.19116300	          0.00000000	         -0.18045300	          0.00000000	          0.00000000	          0.00000000	          1.01327100	        733.42895500	         23.56492300	          0.96809700	          0.00600000	         -0.25869500	          0.00000000	          7.10337900	          0.00000000	
          0.97800000	          0.00000000	          0.00000000	          0.00000000	          1.19274700	          0.00000000	         -0.18054200	          0.00000000	          0.00000000	          0.00000000	          1.22958300	        734.49310300	         23.67385700	          0.96835300	          0.00600000	         -0.25872000	          0.00000000	          7.10099000	          0.00000000	
          0.97850000	          0.00000000	          0.00000000	          0.00000000	          1.19433200	          0.00000000	         -0.18063200	          0.00000000	          0.00000000	          0.00000000	          1.44745600	        735.55598000	         23.78260600	          0.96860900	          0.00600000	         -0.25874400	          0.00000000	          7.09836500	          0.00000000	
          0.97900000	          0.00000000	          0.00000000	          0.00000000	          1.19591700	          0.00000000	         -0.18072100	          0.00000000	          0.00000000	          0.00000000	          1.66690000	        736.61749600	         23.89115300	          0.96886600	          0.00600000	         -0.25876900	          0.00000000	          7.09550500	          0.00000000	
          0.97950000	          0.00000000	          0.00000000	          0.00000000	          1.19750100	          0.00000000	         -0.18081000	          0.00000000	          0.00000000	          0.00000000	          1.88791900	        737.67756100	         23.99947800	          0.96912200	          0.00600000	         -0.25879300	          0.00000000	          7.09241000	          0.00000000	
          0.98000000	          0.00000000	          0.00000000	          0.00000000	          1.19908600	          0.00000000	         -0.18090000	          0.00000000	          0.00000000	          0.00000000	          2.11052000	        738.73608500	         24.10756300	          0.96937800	          0.00600000	         -0.25881700	          0.00000000	          7.08908000	          0.00000000	
          0.98050000	          0.00000000	          0.00000000	          0.00000000	          1.20067100	          0.00000000	         -0.18098900	          0.00000000	          0.00000000	          0.00000000	          2.33470900	        739.79297700	         24.21538900	          0.96963400	          0.00600000	         -0.25884200	          0.00000000	          7.08551600	          0.00000000	
          0.98100000	          0.00000000	          0.00000000	          0.00000000	          1.20225500	          0.00000000	         -0.18107800	          0.00000000	          0.00000000	          0.00000000	          2.56049300	        740.84814600	         24.32293800	          0.96989100	          0.00600000	         -0.25886600	          0.00000000	          7.08171700	          0.00000000	
          0.98150000	          0.00000000	          0.00000000	          0.00000000	          1.20384000	          0.00000000	         -0.18116700	          0.00000000	          0.00000000	          0.00000000	          2.78787600	        741.90150100	         24.43018900	          0.97014700	          0.00600000	         -0.25889100	          0.00000000	          7.07768300	          0.00000000	
          0.98200000	          0.00000000	          0.00000000	          0.00000000	          1.20542500	          0.00000000	         -0.18125700	          0.00000000	          0.00000000	          0.00000000	          3.01686600	        742.95295100	         24.53712500	          0.97040200	          0.00600000	         -0.25891500	          0.00000000	          7.07341600	          0.00000000	
          0.98250000	          0.00000000	          0.00000000	          0.00000000	          1.20701000	          0.00000000	         -0.18134600	          0.00000000	          0.00000000	          0.00000000	          3.24746700	        744.00240100	         24.64372600	          0.97065800	          0.00600000	         -0.25893900	          0.00000000	          7.06891500	          0.00000000	
          0.98300000	          0.00000000	          0.00000000	          0.00000000	          1.20859400	          0.00000000	         -0.18143500	          0.00000000	          0.00000000	          0.00000000	          3.47968400	        745.04976100	         24.74997400	          0.97091400	          0.00600000	         -0.25896400	          0.00000000	          7.06418100	          0.00000000	
          0.98350000	          0.00000000	          0.00000000	          0.00000000	          1.21017900	          0.00000000	         -0.18152400	          0.00000000	          0.00000000	          0.00000000	          3.71352200	        746.09493600	         24.85584800	          0.97117000	          0.00600000	         -0.25898800	          0.00000000	          7.05921500	          0.00000000	
          0.98400000	          0.00000000	          0.00000000	          0.00000000	          1.21176400	          0.00000000	         -0.18161400	          0.00000000	          0.00000000	          0.00000000	          3.94898700	        747.13783400	         24.96133100	          0.97142500	          0.00600000	         -0.25901200	          0.00000000	          7.05401500	          0.00000000	
          0.98450000	          0.00000000	          0.00000000	          0.00000000	          1.21334800	          0.00000000	         -0.18170300	          0.00000000	          0.00000000	          0.00000000	          4.18608200	        748.17836000	         25.06640200	          0.97168100	          0.00600000	         -0.25903600	          0.00000000	          7.04858400	          0.00000000	
          0.98500000	          0.00000000	          0.00000000	          0.00000000	          1.21493300	          0.00000000	         -0.18179200	          0.00000000	          0.00000000	          0.00000000	          4.42481300	        749.21641900	         25.17104300	          0.97193600	          0.00600000	         -0.25906000	          0.00000000	          7.04292200	          0.00000000	
          0.98550000	          0.00000000	          0.00000000	          0.00000000	          1.21651800	          0.00000000	         -0.18188200	          0.00000000	          0.00000000	          0.00000000	          4.66518300	        750.25191800	         25.27523400	          0.97219100	          0.00600000	         -0.25908400	          0.00000000	          7.03702800	          0.00000000	
          0.98600000	          0.00000000	          0.00000000	          0.00000000	          1.21810200	          0.00000000	         -0.18197100	          0.00000000	          0.00000000	          0.00000000	          4.90719700	        751.28476100	         25.37895700	          0.97244600	          0.00600000	         -0.25910900	          0.00000000	          7.03090500	          0.00000000	
          0.98650000	          0.00000000	          0.00000000	          0.00000000	          1.21968700	          0.00000000	         -0.18206000	          0.00000000	          0.00000000	          0.00000000	          5.15085800	        752.31485200	         25.48219200	          0.97270100	          0.00600000	         -0.25913300	          0.00000000	          7.02455100	          0.00000000	
          0.98700000	          0.00000000	          0.00000000	          0.00000000	          1.22127200	          0.00000000	         -0.18214900	          0.00000000	          0.00000000	          0.00000000	          5.39616900	        753.34209500	         25.58491900	          0.97295600	          0.00600000	         -0.25915700	          0.00000000	          7.01796900	          0.00000000	
          0.98750000	          0.00000000	          0.00000000	          0.00000000	          1.22285700	          0.00000000	         -0.18223900	          0.00000000	          0.00000000	          0.00000000	          5.64313400	        754.36639400	         25.68712000	          0.97321100	          0.00600000	         -0.25918100	          0.00000000	          7.01115800	          0.00000000	
